<svg id="Layer_1" data-name="Layer 1" xmlns="http://www.w3.org/2000/svg" viewBox="0 0 549.75 397.98"><defs><style>.cls-1{fill:#fff;}</style></defs><polygon class="cls-1" points="186.22 0 374.19 0 279.92 190.16 186.22 0"/><path class="cls-1" d="M207.24,356.81C110.41,356.81,54.32,297,54.32,204c0-81.2,41-134,106.54-150.92L140,15.06C54.54,39.21,0,110.05,0,205.68,0,330.31,84.43,398,196.61,398a345.91,345.91,0,0,0,62.4-5.42V351.31A247.46,247.46,0,0,1,207.24,356.81Z"/><path class="cls-1" d="M343.9,172.86l-45.08,88V391.21c17.12,2.26,44.28,4.51,79.71,4.51,64.94,0,109.82-11.28,137.57-35.53,20.07-18.6,33.65-43.42,33.65-76.13,0-56.39-44.28-86.28-82.07-95.3v-1.13C509.6,173,535,140.82,535,104.17c0-29.89-12.4-52.45-33.06-67.11-18.85-14.57-42.48-23-75.28-26.13L407.9,47.43C454.53,49.54,483,67.52,483,109.24c0,36.66-31.88,63.73-86.2,63.73m-3.54,184.41c-18.3,0-33.07-.57-43.1-2.26V210.19H392.7c56.09,0,102.73,21.43,102.73,73.31C495.43,338.76,446.43,357.38,393.29,357.38Z"/></svg>